<?xml version="1.0" encoding="UTF-8" standalone="no"?>
<!DOCTYPE svg PUBLIC "-//W3C//DTD SVG 1.1//EN" "http://www.w3.org/Graphics/SVG/1.1/DTD/svg11.dtd">
<svg xmlns="http://www.w3.org/2000/svg" version="1.1" viewBox="0.00 0.00 30.00 38.00">
<g stroke-width="2.60" fill="none" stroke-linecap="butt">
<path stroke="#fbc5c1" vector-effect="non-scaling-stroke" d="
  M 0.00 36.78
  L 29.42 36.82
  Q 29.78 36.82 29.78 36.46
  L 29.78 36.21
  Q 29.78 36.09 29.66 36.09
  L 0.00 36.10"
/>
<path stroke="#fbc5c1" vector-effect="non-scaling-stroke" d="
  M 12.34 31.12
  C 19.68 28.04 27.60 22.14 25.36 13.47
  C 24.87 11.54 26.15 9.93 25.22 8.15
  C 24.19 6.18 23.51 4.18 21.13 3.42
  C 16.86 2.05 10.45 1.70 8.60 6.74
  Q 8.39 7.31 7.93 7.71
  Q 3.35 11.63 3.14 17.97
  C 2.96 22.92 4.70 34.32 12.34 31.12"
/>
<path stroke="#f99a96" vector-effect="non-scaling-stroke" d="
  M 10.23 8.33
  Q 5.43 10.65 4.83 16.50
  C 4.46 20.06 4.98 28.17 9.01 30.12
  A 1.29 1.28 49.7 0 0 9.96 30.20
  Q 18.43 27.61 22.70 21.46
  Q 25.77 17.03 22.83 11.27"
/>
<path stroke="#d8cdb8" vector-effect="non-scaling-stroke" d="
  M 22.83 11.27
  Q 24.06 10.63 24.01 9.61
  Q 23.98 9.05 23.54 8.70
  C 22.55 7.93 22.56 6.74 21.97 5.72
  A 1.29 1.26 76.7 0 0 20.97 5.09
  Q 19.21 4.96 17.45 4.28
  Q 17.07 4.13 16.66 4.18
  Q 16.20 4.23 15.76 4.41
  Q 15.30 4.60 14.81 4.53
  Q 10.70 3.93 10.23 8.33"
/>
<path stroke="#d46e5a" vector-effect="non-scaling-stroke" d="
  M 22.83 11.27
  Q 21.48 10.99 20.44 9.70
  Q 20.08 9.24 19.51 9.37
  Q 18.62 9.57 17.95 9.00
  Q 17.39 8.52 16.59 8.24
  Q 13.53 7.16 10.23 8.33"
/>
<path stroke="#f76763" vector-effect="non-scaling-stroke" d="
  M 12.90 11.57
  Q 12.82 11.73 12.90 11.84
  Q 12.99 11.97 13.16 11.99
  Q 17.37 12.44 20.60 15.21
  Q 21.00 15.55 20.76 16.01
  L 20.39 16.76
  A 0.57 0.57 0.0 0 0 20.77 17.57
  L 22.27 17.91
  A 0.47 0.47 0.0 0 0 22.84 17.51
  Q 23.62 10.53 16.85 10.08
  Q 16.36 10.05 15.94 9.78
  Q 12.20 7.35 9.02 10.49
  A 0.64 0.64 0.0 0 0 9.20 11.52
  Q 10.53 12.15 12.78 11.43
  A 0.10 0.10 0.0 0 1 12.90 11.57"
/>
</g>
<path fill="#f8928e" d="
  M 0.00 0.00
  L 30.00 0.00
  L 30.00 38.00
  L 0.00 38.00
  L 0.00 36.78
  L 29.42 36.82
  Q 29.78 36.82 29.78 36.46
  L 29.78 36.21
  Q 29.78 36.09 29.66 36.09
  L 0.00 36.10
  L 0.00 0.00
  Z
  M 12.34 31.12
  C 19.68 28.04 27.60 22.14 25.36 13.47
  C 24.87 11.54 26.15 9.93 25.22 8.15
  C 24.19 6.18 23.51 4.18 21.13 3.42
  C 16.86 2.05 10.45 1.70 8.60 6.74
  Q 8.39 7.31 7.93 7.71
  Q 3.35 11.63 3.14 17.97
  C 2.96 22.92 4.70 34.32 12.34 31.12
  Z"
/>
<path fill="#fdf8f4" d="
  M 25.36 13.47
  C 27.60 22.14 19.68 28.04 12.34 31.12
  C 4.70 34.32 2.96 22.92 3.14 17.97
  Q 3.35 11.63 7.93 7.71
  Q 8.39 7.31 8.60 6.74
  C 10.45 1.70 16.86 2.05 21.13 3.42
  C 23.51 4.18 24.19 6.18 25.22 8.15
  C 26.15 9.93 24.87 11.54 25.36 13.47
  Z
  M 10.23 8.33
  Q 5.43 10.65 4.83 16.50
  C 4.46 20.06 4.98 28.17 9.01 30.12
  A 1.29 1.28 49.7 0 0 9.96 30.20
  Q 18.43 27.61 22.70 21.46
  Q 25.77 17.03 22.83 11.27
  Q 24.06 10.63 24.01 9.61
  Q 23.98 9.05 23.54 8.70
  C 22.55 7.93 22.56 6.74 21.97 5.72
  A 1.29 1.26 76.7 0 0 20.97 5.09
  Q 19.21 4.96 17.45 4.28
  Q 17.07 4.13 16.66 4.18
  Q 16.20 4.23 15.76 4.41
  Q 15.30 4.60 14.81 4.53
  Q 10.70 3.93 10.23 8.33
  Z"
/>
<path fill="#b3a17b" d="
  M 22.83 11.27
  Q 21.48 10.99 20.44 9.70
  Q 20.08 9.24 19.51 9.37
  Q 18.62 9.57 17.95 9.00
  Q 17.39 8.52 16.59 8.24
  Q 13.53 7.16 10.23 8.33
  Q 10.70 3.93 14.81 4.53
  Q 15.30 4.60 15.76 4.41
  Q 16.20 4.23 16.66 4.18
  Q 17.07 4.13 17.45 4.28
  Q 19.21 4.96 20.97 5.09
  A 1.29 1.26 76.7 0 1 21.97 5.72
  C 22.56 6.74 22.55 7.93 23.54 8.70
  Q 23.98 9.05 24.01 9.61
  Q 24.06 10.63 22.83 11.27
  Z"
/>
<path fill="#f53b38" d="
  M 22.83 11.27
  Q 25.77 17.03 22.70 21.46
  Q 18.43 27.61 9.96 30.20
  A 1.29 1.28 49.7 0 1 9.01 30.12
  C 4.98 28.17 4.46 20.06 4.83 16.50
  Q 5.43 10.65 10.23 8.33
  Q 13.53 7.16 16.59 8.24
  Q 17.39 8.52 17.95 9.00
  Q 18.62 9.57 19.51 9.37
  Q 20.08 9.24 20.44 9.70
  Q 21.48 10.99 22.83 11.27
  Z
  M 12.90 11.57
  Q 12.82 11.73 12.90 11.84
  Q 12.99 11.97 13.16 11.99
  Q 17.37 12.44 20.60 15.21
  Q 21.00 15.55 20.76 16.01
  L 20.39 16.76
  A 0.57 0.57 0.0 0 0 20.77 17.57
  L 22.27 17.91
  A 0.47 0.47 0.0 0 0 22.84 17.51
  Q 23.62 10.53 16.85 10.08
  Q 16.36 10.05 15.94 9.78
  Q 12.20 7.35 9.02 10.49
  A 0.64 0.64 0.0 0 0 9.20 11.52
  Q 10.53 12.15 12.78 11.43
  A 0.10 0.10 0.0 0 1 12.90 11.57
  Z"
/>
<path fill="#f8928e" d="
  M 12.90 11.57
  A 0.10 0.10 0.0 0 0 12.78 11.43
  Q 10.53 12.15 9.20 11.52
  A 0.64 0.64 0.0 0 1 9.02 10.49
  Q 12.20 7.35 15.94 9.78
  Q 16.36 10.05 16.85 10.08
  Q 23.62 10.53 22.84 17.51
  A 0.47 0.47 0.0 0 1 22.27 17.91
  L 20.77 17.57
  A 0.57 0.57 0.0 0 1 20.39 16.76
  L 20.76 16.01
  Q 21.00 15.55 20.60 15.21
  Q 17.37 12.44 13.16 11.99
  Q 12.99 11.97 12.90 11.84
  Q 12.82 11.73 12.90 11.57
  Z"
/>
<path fill="#fdf8f4" d="
  M 0.00 36.78
  L 0.00 36.10
  L 29.66 36.09
  Q 29.78 36.09 29.78 36.21
  L 29.78 36.46
  Q 29.78 36.82 29.42 36.82
  L 0.00 36.78
  Z"
/>
</svg>
